<svg xmlns="http://www.w3.org/2000/svg" version="1.1" xmlns:xlink="http://www.w3.org/1999/xlink" xmlns:svgjs="http://svgjs.com/svgjs" width="512" height="512" x="0" y="0" viewBox="0 0 24 24" style="enable-background:new 0 0 512 512" xml:space="preserve" class=""><g><g fill="#000" fill-rule="evenodd" clip-rule="evenodd"><path d="M8.667 1a1 1 0 0 0-1 1v2H2.952a1 1 0 0 0 0 2h18.096a1 1 0 1 0 0-2h-4.62V2a1 1 0 0 0-1-1zm1 2.857V3h4.762v.857zM19.952 8h-16v11.167c0 2.146 1.65 3.833 3.8 3.833h8.4c2.15 0 3.8-1.687 3.8-3.833zm-9.333 3.523a1 1 0 0 0-2 0v6.667a1 1 0 1 0 2 0zm4.762 0a1 1 0 0 0-2 0v6.667a1 1 0 1 0 2 0z" fill="#ffffff" data-original="#000000" class="" opacity="1"></path></g></g></svg>